PathFileType	4	(X/Y/Z)	Walk_125 04
DataRate	CameraRate	NumFrames	NumMarkers	Units	OrigDataRate	OrigDataStartFrame	OrigNumFrames
120	120	4	42	mm	120	612	128
Frame#	Time	LASI			RASI			LPSI			RPSI			RTH1			RTH2			RTH3			LTH1			LTH2			LTH3			RTB1			RTB2			RTB3			LTB1			LTB2			LTB3			RCAL			RTOE			RMT5			LCAL			LTOE			LMT5			LACR			RACR			CLAV			C7			RUA1			RUA2			RUA3			RLEL			RMEL			LUA1			LUA2			LUA3			LLEL			LMEL			RFAsuperior			RFAradius			RFAulna			LFAsuperior			LFAradius			LFAulna		
		X1	Y1	Z1	X2	Y2	Z2	X3	Y3	Z3	X4	Y4	Z4	X5	Y5	Z5	X6	Y6	Z6	X7	Y7	Z7	X8	Y8	Z8	X9	Y9	Z9	X10	Y10	Z10	X11	Y11	Z11	X12	Y12	Z12	X13	Y13	Z13	X14	Y14	Z14	X15	Y15	Z15	X16	Y16	Z16	X17	Y17	Z17	X18	Y18	Z18	X19	Y19	Z19	X20	Y20	Z20	X21	Y21	Z21	X22	Y22	Z22	X23	Y23	Z23	X24	Y24	Z24	X25	Y25	Z25	X26	Y26	Z26	X27	Y27	Z27	X28	Y28	Z28	X29	Y29	Z29	X30	Y30	Z30	X31	Y31	Z31	X32	Y32	Z32	X33	Y33	Z33	X34	Y34	Z34	X35	Y35	Z35	X36	Y36	Z36	X37	Y37	Z37	X38	Y38	Z38	X39	Y39	Z39	X40	Y40	Z40	X41	Y41	Z41	X42	Y42	Z42	

612	  5.100000	974.734077	1102.987292	-622.934941	952.202067	1089.206312	-360.434641	782.860251	1119.757515	-545.054362	776.926197	1108.810271	-464.320723	901.236543	910.653860	-319.206324	964.004179	807.753909	-320.278787	906.132132	691.596098	-350.280162	936.948617	889.357910	-678.659671	1019.108928	776.014055	-659.690179	968.296474	654.704849	-639.796883	886.159481	429.892310	-407.740669	820.535981	408.385130	-338.177405	777.012200	317.279307	-405.354323	1032.202002	422.768979	-564.108821	1002.185733	337.116554	-620.950392	1000.417081	224.650107	-551.709729	566.355305	349.932051	-411.356340	647.999510	131.097624	-425.773845	589.716374	176.962724	-338.084444	874.977201	100.775045	-546.054264	1107.983701	 77.947573	-521.930687	1040.977404	 53.462701	-613.036367	937.520669	1558.211009	-660.015336	910.848241	1556.216798	-312.887964	979.417082	1508.715346	-451.155158	858.115594	1600.341361	-488.156146	886.261415	1440.206367	-247.217428	886.262414	1346.821323	-260.154330	814.199757	1335.220383	-240.298583	783.513050	1201.518763	-221.788293	776.554137	1199.090690	-295.064589	926.235106	1459.562878	-731.046583	939.191660	1387.198864	-720.826524	847.982485	1359.606603	-725.408733	859.230516	1197.884846	-765.849389	825.222740	1191.457924	-698.172059	835.072410	1121.260139	-182.453380	911.177272	949.597908	-201.186583	846.485006	947.013066	-164.090976	922.719839	1129.942619	-783.731448	978.891624	941.028746	-752.200549	924.548693	933.888329	-801.855060	
613	  5.108333	974.228738	1104.081291	-623.535146	951.640305	1091.419855	-361.486004	782.492053	1121.606085	-545.641481	776.256190	1110.951073	-464.511431	903.301231	912.795651	-319.460386	968.813757	811.175176	-320.169591	913.737594	694.004803	-350.820277	936.325605	889.867500	-678.333156	1015.301543	775.965203	-659.346291	962.496836	655.202266	-640.035920	898.494377	433.539268	-408.223725	833.472209	410.567125	-338.777954	790.394335	319.305342	-405.950674	1023.635288	422.439045	-563.701439	993.192104	336.945598	-620.934039	990.647730	224.503124	-551.664331	579.707272	347.713525	-413.504028	667.075260	130.917867	-424.377430	606.610873	176.331327	-337.911272	864.509324	100.849815	-545.951586	1097.391210	 77.896215	-521.956672	1030.425559	 53.473709	-612.951929	938.315157	1559.988422	-659.694292	909.392345	1557.534363	-312.654898	979.052652	1510.385284	-450.601053	858.064391	1601.972411	-488.284643	884.021208	1441.619710	-247.251942	883.921326	1348.172017	-260.263549	811.652233	1336.763601	-241.106772	780.560726	1203.324848	-222.742164	774.176950	1200.815331	-296.027418	927.883206	1461.492685	-730.972428	941.259294	1389.122942	-720.747504	850.326160	1361.114890	-726.588215	862.731575	1199.587764	-767.624064	827.699537	1192.698220	-700.068081	830.504938	1122.403951	-182.911783	903.624312	949.263199	-201.063099	838.649565	947.918095	-164.300216	927.102779	1132.295368	-785.137826	985.016045	943.993017	-753.349128	931.251480	936.371388	-803.613001	
614	  5.116667	973.713819	1105.057687	-624.063443	951.015437	1093.534926	-362.461976	782.306861	1123.305138	-546.246243	775.600424	1113.084190	-464.731720	905.199101	914.983501	-319.635695	973.501004	814.690644	-320.025960	921.046079	696.552011	-351.136170	935.380295	890.104288	-677.978201	1011.161292	775.733771	-658.893765	956.366126	655.591189	-640.220074	910.725278	437.041965	-408.664048	846.368282	412.499720	-339.354783	803.744009	321.079268	-406.523087	1014.879466	422.081101	-563.359413	983.963828	336.759815	-620.889308	980.816862	224.343750	-551.587395	593.258877	344.289226	-415.338875	687.123709	130.111204	-423.547345	624.714962	174.558053	-337.911347	854.016450	100.909805	-545.823476	1086.829127	 77.831675	-521.948365	1019.852905	 53.497619	-612.888374	939.008334	1561.775029	-659.287977	908.165390	1558.836512	-312.453332	978.686285	1511.914346	-450.062076	858.000658	1603.543010	-488.355029	881.878213	1443.094476	-247.260507	881.587992	1349.583184	-260.321122	809.112694	1338.423826	-241.940390	777.506828	1205.265501	-223.697920	771.740054	1202.680188	-297.009112	929.311177	1463.477282	-730.920506	943.201272	1391.117136	-720.701848	852.537133	1362.674242	-727.639583	866.184930	1201.338015	-769.285032	829.937708	1193.997878	-701.762748	825.830660	1123.729721	-183.394435	896.097830	949.223150	-200.961049	830.884533	949.072622	-164.555524	931.448757	1134.725324	-786.383380	991.192548	947.059729	-754.411540	937.997595	938.959602	-805.258076	
615	  5.125000	973.189867	1105.938388	-624.545019	950.334118	1095.531628	-363.321682	782.022595	1124.887272	-546.779907	775.008488	1115.211067	-465.045304	907.070613	917.191159	-319.714204	978.086831	818.249094	-319.951079	927.990069	699.199647	-351.185929	933.413036	890.307661	-677.841774	1006.728326	775.320355	-658.383011	949.965133	655.851588	-640.362169	922.930688	440.176829	-409.060833	859.229899	414.087889	-339.918044	817.058081	322.510355	-407.081991	1005.959340	421.687950	-563.189311	974.523706	336.554626	-620.820334	970.928603	224.163059	-551.406986	607.097114	339.728150	-416.791054	707.925427	128.674848	-423.379086	644.031371	171.741280	-338.074235	843.513030	100.964043	-545.660987	1076.321588	 77.759364	-521.898264	1009.272892	 53.526702	-612.821557	939.612019	1563.554275	-658.863400	907.172176	1560.096942	-312.312973	978.318403	1513.288638	-449.552847	857.929466	1605.043718	-488.368491	879.892295	1444.579239	-247.255312	879.308288	1351.039280	-260.225616	806.601333	1340.173247	-242.782483	774.360662	1207.293037	-224.646631	769.195564	1204.695521	-297.979768	930.525473	1465.481519	-730.890414	944.978515	1393.157434	-720.733410	854.613052	1364.247040	-728.555427	869.558930	1203.108265	-770.824151	832.325290	1195.293731	-703.394564	821.078963	1125.208818	-183.884350	888.639914	949.455020	-200.833535	823.215487	950.435289	-164.862759	935.732997	1137.208515	-787.444181	997.434792	950.237062	-755.439155	944.773305	941.629122	-806.782783	
